<svg width="165" height="34" viewBox="0 0 165 34" fill="none" xmlns="http://www.w3.org/2000/svg">
<path d="M3.312 31.344H12.744V33H1.548V13.308H3.312V31.344ZM37.8695 32.1C37.3655 32.868 36.6455 33.252 35.7095 33.252C34.9415 33.252 34.3175 33.012 33.8375 32.532C33.3575 32.028 33.1175 31.404 33.1175 30.66V12.084H34.7015V30.66C34.7015 30.924 34.8095 31.164 35.0255 31.38C35.2415 31.572 35.4695 31.668 35.7095 31.668C36.0455 31.668 36.3215 31.524 36.5375 31.236L37.8695 32.1ZM40.2098 14.712C39.9698 14.472 39.8498 14.184 39.8498 13.848C39.8498 13.512 39.9578 13.224 40.1738 12.984C40.4138 12.744 40.7018 12.624 41.0378 12.624C41.3738 12.624 41.6618 12.744 41.9018 12.984C42.1658 13.224 42.2978 13.512 42.2978 13.848C42.2978 14.16 42.1658 14.448 41.9018 14.712C41.6618 14.952 41.3738 15.072 41.0378 15.072C40.7258 15.072 40.4498 14.952 40.2098 14.712ZM42.9098 33.288C42.1898 33.288 41.5778 33.036 41.0738 32.532C40.5698 32.028 40.3178 31.416 40.3178 30.696V18.6H41.9018V30.696C41.9018 30.96 41.9978 31.2 42.1898 31.416C42.4058 31.608 42.6458 31.704 42.9098 31.704C43.2458 31.704 43.5218 31.56 43.7378 31.272L45.0698 32.136C44.5178 32.904 43.7978 33.288 42.9098 33.288ZM51.0261 33.288C48.6261 33.288 47.4261 31.824 47.4261 28.896V15.036H49.0101V18.672H53.5461V20.256H49.0101V28.896C49.0101 30.816 49.7301 31.776 51.1701 31.776C51.6741 31.776 52.1661 31.608 52.6461 31.272C53.1261 30.912 53.4981 30.516 53.7621 30.084L54.9141 30.948C54.0981 32.508 52.8021 33.288 51.0261 33.288ZM69.1113 30.696C69.1113 30.936 69.2193 31.164 69.4353 31.38C69.6513 31.596 69.8793 31.704 70.1193 31.704C70.4553 31.704 70.7313 31.548 70.9473 31.236L72.2433 32.136C71.8113 32.904 71.1033 33.288 70.1193 33.288C69.4473 33.288 68.8713 33.072 68.3913 32.64C67.9353 32.208 67.6593 31.68 67.5633 31.056C66.6993 32.544 65.2353 33.288 63.1713 33.288C61.2273 33.288 59.7153 32.592 58.6353 31.2C57.5793 29.808 57.0513 28.032 57.0513 25.872C57.0513 23.688 57.6513 21.9 58.8513 20.508C60.0513 19.092 61.6833 18.384 63.7473 18.384C65.0433 18.384 66.3033 18.468 67.5273 18.636H69.1113V30.696ZM67.5273 20.112C67.1433 20.112 66.5433 20.076 65.7273 20.004C64.9353 19.908 64.2873 19.86 63.7833 19.86C62.1513 19.86 60.8913 20.412 60.0033 21.516C59.1153 22.62 58.6713 24.048 58.6713 25.8C58.6713 27.48 59.0553 28.896 59.8233 30.048C60.5913 31.2 61.7073 31.776 63.1713 31.776C64.4193 31.776 65.4513 31.392 66.2673 30.624C67.1073 29.856 67.5273 28.848 67.5273 27.6V20.112ZM93.1199 25.008H84.5519V23.388H93.1199V25.008ZM116.28 18.96C116.28 17.856 115.92 16.956 115.2 16.26C114.48 15.564 113.556 15.216 112.428 15.216C111.396 15.216 110.508 15.444 109.764 15.9C109.02 16.332 108.48 16.932 108.144 17.7C108.096 17.82 108.012 18.012 107.892 18.276C107.796 18.516 107.724 18.696 107.676 18.816L106.308 18.096L106.992 16.728C107.4 15.84 108.072 15.144 109.008 14.64C109.944 14.112 111.06 13.848 112.356 13.848C114.108 13.848 115.464 14.28 116.424 15.144C117.408 16.008 117.9 17.28 117.9 18.96C117.9 20.016 117.708 20.892 117.324 21.588C116.94 22.284 116.364 23.016 115.596 23.784C114.924 24.456 114.204 25.056 113.436 25.584C112.524 26.256 111.768 26.832 111.168 27.312C110.568 27.84 110.112 28.248 109.8 28.536C109.512 28.8 109.188 29.196 108.828 29.724C108.492 30.252 108.252 30.792 108.108 31.344H118.836V33H106.272V32.64C106.272 31.488 106.512 30.48 106.992 29.616C107.808 28.2 109.236 26.712 111.276 25.152C112.236 24.456 112.86 23.988 113.148 23.748C113.436 23.508 113.796 23.184 114.228 22.776C114.684 22.344 115.116 21.84 115.524 21.264C116.028 20.544 116.28 19.776 116.28 18.96ZM123.122 16.692C124.49 14.844 126.422 13.92 128.918 13.92C131.414 13.92 133.334 14.844 134.678 16.692C136.022 18.516 136.694 20.82 136.694 23.604C136.694 26.388 136.022 28.704 134.678 30.552C133.334 32.376 131.414 33.288 128.918 33.288C126.446 33.288 124.526 32.364 123.158 30.516C121.79 28.644 121.106 26.34 121.106 23.604C121.106 20.844 121.778 18.54 123.122 16.692ZM133.382 17.844C132.374 16.284 130.886 15.504 128.918 15.504C126.95 15.504 125.45 16.284 124.418 17.844C123.41 19.38 122.906 21.3 122.906 23.604C122.906 25.908 123.41 27.84 124.418 29.4C125.45 30.936 126.95 31.704 128.918 31.704C130.862 31.704 132.35 30.924 133.382 29.364C134.414 27.804 134.93 25.884 134.93 23.604C134.93 21.3 134.414 19.38 133.382 17.844ZM149.748 18.96C149.748 17.856 149.388 16.956 148.668 16.26C147.948 15.564 147.024 15.216 145.896 15.216C144.864 15.216 143.976 15.444 143.232 15.9C142.488 16.332 141.948 16.932 141.612 17.7C141.564 17.82 141.48 18.012 141.36 18.276C141.264 18.516 141.192 18.696 141.144 18.816L139.776 18.096L140.46 16.728C140.868 15.84 141.54 15.144 142.476 14.64C143.412 14.112 144.528 13.848 145.824 13.848C147.576 13.848 148.932 14.28 149.892 15.144C150.876 16.008 151.368 17.28 151.368 18.96C151.368 20.016 151.176 20.892 150.792 21.588C150.408 22.284 149.832 23.016 149.064 23.784C148.392 24.456 147.672 25.056 146.904 25.584C145.992 26.256 145.236 26.832 144.636 27.312C144.036 27.84 143.58 28.248 143.268 28.536C142.98 28.8 142.656 29.196 142.296 29.724C141.96 30.252 141.72 30.792 141.576 31.344H152.304V33H139.74V32.64C139.74 31.488 139.98 30.48 140.46 29.616C141.276 28.2 142.704 26.712 144.744 25.152C145.704 24.456 146.328 23.988 146.616 23.748C146.904 23.508 147.264 23.184 147.696 22.776C148.152 22.344 148.584 21.84 148.992 21.264C149.496 20.544 149.748 19.776 149.748 18.96ZM161.941 33H160.213V16.512C158.773 17.736 157.297 18.348 155.785 18.348L155.425 16.836C156.433 16.836 157.441 16.512 158.449 15.864C158.833 15.672 159.373 15.336 160.069 14.856L161.725 13.74H161.941V33Z" fill="#FF8CB5"/>
<path d="M24.648 19.0001C27.0467 19.0127 28.9883 21.1026 29 23.6844C29 28.4145 21 33.0988 21 33.0988C21 33.0988 13 28.3457 13 23.6844C13 21.0974 14.9484 19.0001 17.352 19.0001C18.8233 18.9878 20.1988 19.7843 21 21.1126C21.8067 19.7908 23.1786 18.9963 24.648 19.0001Z" fill="#FF8CB5"/>
</svg>
