<svg width="77" height="34" viewBox="0 0 77 34" fill="none" xmlns="http://www.w3.org/2000/svg">
<path d="M3.312 31.344H12.744V33H1.548V13.308H3.312V31.344ZM37.8695 32.1C37.3655 32.868 36.6455 33.252 35.7095 33.252C34.9415 33.252 34.3175 33.012 33.8375 32.532C33.3575 32.028 33.1175 31.404 33.1175 30.66V12.084H34.7015V30.66C34.7015 30.924 34.8095 31.164 35.0255 31.38C35.2415 31.572 35.4695 31.668 35.7095 31.668C36.0455 31.668 36.3215 31.524 36.5375 31.236L37.8695 32.1ZM40.2098 14.712C39.9698 14.472 39.8498 14.184 39.8498 13.848C39.8498 13.512 39.9578 13.224 40.1738 12.984C40.4138 12.744 40.7018 12.624 41.0378 12.624C41.3738 12.624 41.6618 12.744 41.9018 12.984C42.1658 13.224 42.2978 13.512 42.2978 13.848C42.2978 14.16 42.1658 14.448 41.9018 14.712C41.6618 14.952 41.3738 15.072 41.0378 15.072C40.7258 15.072 40.4498 14.952 40.2098 14.712ZM42.9098 33.288C42.1898 33.288 41.5778 33.036 41.0738 32.532C40.5698 32.028 40.3178 31.416 40.3178 30.696V18.6H41.9018V30.696C41.9018 30.96 41.9978 31.2 42.1898 31.416C42.4058 31.608 42.6458 31.704 42.9098 31.704C43.2458 31.704 43.5218 31.56 43.7378 31.272L45.0698 32.136C44.5178 32.904 43.7978 33.288 42.9098 33.288ZM51.0261 33.288C48.6261 33.288 47.4261 31.824 47.4261 28.896V15.036H49.0101V18.672H53.5461V20.256H49.0101V28.896C49.0101 30.816 49.7301 31.776 51.1701 31.776C51.6741 31.776 52.1661 31.608 52.6461 31.272C53.1261 30.912 53.4981 30.516 53.7621 30.084L54.9141 30.948C54.0981 32.508 52.8021 33.288 51.0261 33.288ZM69.1113 30.696C69.1113 30.936 69.2193 31.164 69.4353 31.38C69.6513 31.596 69.8793 31.704 70.1193 31.704C70.4553 31.704 70.7313 31.548 70.9473 31.236L72.2433 32.136C71.8113 32.904 71.1033 33.288 70.1193 33.288C69.4473 33.288 68.8713 33.072 68.3913 32.64C67.9353 32.208 67.6593 31.68 67.5633 31.056C66.6993 32.544 65.2353 33.288 63.1713 33.288C61.2273 33.288 59.7153 32.592 58.6353 31.2C57.5793 29.808 57.0513 28.032 57.0513 25.872C57.0513 23.688 57.6513 21.9 58.8513 20.508C60.0513 19.092 61.6833 18.384 63.7473 18.384C65.0433 18.384 66.3033 18.468 67.5273 18.636H69.1113V30.696ZM67.5273 20.112C67.1433 20.112 66.5433 20.076 65.7273 20.004C64.9353 19.908 64.2873 19.86 63.7833 19.86C62.1513 19.86 60.8913 20.412 60.0033 21.516C59.1153 22.62 58.6713 24.048 58.6713 25.8C58.6713 27.48 59.0553 28.896 59.8233 30.048C60.5913 31.2 61.7073 31.776 63.1713 31.776C64.4193 31.776 65.4513 31.392 66.2673 30.624C67.1073 29.856 67.5273 28.848 67.5273 27.6V20.112Z" fill="#FF8CB5"/>
<path d="M24.648 19.0001C27.0467 19.0127 28.9883 21.1026 29 23.6844C29 28.4145 21 33.0988 21 33.0988C21 33.0988 13 28.3457 13 23.6844C13 21.0974 14.9484 19.0001 17.352 19.0001C18.8233 18.9878 20.1988 19.7843 21 21.1126C21.8067 19.7908 23.1786 18.9963 24.648 19.0001Z" fill="#FF8CB5"/>
</svg>
